<svg width="326" height="189" viewBox="0 0 326 189" fill="none" xmlns="http://www.w3.org/2000/svg">
<rect width="326" height="189" rx="0" fill="#C6C5C5"/>
<rect y="28" width="326" height="37" fill="#A8A8A8"/>
<rect y="28" width="326" height="37" fill="#A8A8A8"/>
<rect y="28" width="326" height="37" fill="#A8A8A8"/>
<rect y="28" width="326" height="37" fill="#A8A8A8"/>
<rect y="28" width="326" height="37" fill="#A8A8A8"/>
<rect y="28" width="326" height="37" fill="#A8A8A8"/>
<rect y="28" width="326" height="37" fill="#A8A8A8"/>
<rect y="73" width="326" height="5" fill="#A8A8A8"/>
<rect y="73" width="326" height="5" fill="#A8A8A8"/>
<rect y="73" width="326" height="5" fill="#A8A8A8"/>
<rect y="73" width="326" height="5" fill="#A8A8A8"/>
<rect y="73" width="326" height="5" fill="#A8A8A8"/>
<rect y="73" width="326" height="5" fill="#A8A8A8"/>
<rect y="73" width="326" height="5" fill="#A8A8A8"/>
<rect y="93" width="326" height="5" fill="#A8A8A8"/>
<rect y="93" width="326" height="5" fill="#A8A8A8"/>
<rect y="93" width="326" height="5" fill="#A8A8A8"/>
<rect y="93" width="326" height="5" fill="#A8A8A8"/>
<rect y="93" width="326" height="5" fill="#A8A8A8"/>
<rect y="93" width="326" height="5" fill="#A8A8A8"/>
<rect y="93" width="326" height="5" fill="#A8A8A8"/>
<rect y="103" width="326" height="5" fill="#A8A8A8"/>
<rect y="103" width="326" height="5" fill="#A8A8A8"/>
<rect y="103" width="326" height="5" fill="#A8A8A8"/>
<rect y="103" width="326" height="5" fill="#A8A8A8"/>
<rect y="103" width="326" height="5" fill="#A8A8A8"/>
<rect y="103" width="326" height="5" fill="#A8A8A8"/>
<rect y="103" width="326" height="5" fill="#A8A8A8"/>
<rect y="83" width="326" height="5" fill="#A8A8A8"/>
<rect y="83" width="326" height="5" fill="#A8A8A8"/>
<rect y="83" width="326" height="5" fill="#A8A8A8"/>
<rect y="83" width="326" height="5" fill="#A8A8A8"/>
<rect y="83" width="326" height="5" fill="#A8A8A8"/>
<rect y="83" width="326" height="5" fill="#A8A8A8"/>
<rect y="83" width="326" height="5" fill="#A8A8A8"/>
</svg>
