<svg width="64" height="64" viewBox="0 0 64 64" fill="none" xmlns="http://www.w3.org/2000/svg">
<circle cx="32" cy="32" r="31" fill="#70CB0E" stroke="white" stroke-width="2"/>
<path d="M50.3227 16.4019C50.3101 18.0056 49.4614 19.4037 48.2018 20.1739C47.5355 20.5814 46.7536 20.8128 45.9193 20.8054C43.5076 20.7852 41.5682 18.7804 41.588 16.3276C41.5944 15.5409 41.802 14.8038 42.1605 14.1658C42.9189 12.8155 44.3536 11.9103 45.9924 11.925C48.4041 11.9452 50.3435 13.9491 50.3227 16.4019Z" fill="#585E60"/>
<path d="M48.2018 20.1734C47.5355 20.581 46.7536 20.8124 45.9193 20.805C43.5076 20.7848 41.5682 18.78 41.588 16.3272C41.5944 15.5405 41.802 14.8034 42.1605 14.1654C44.5813 15.693 46.6479 17.7491 48.2018 20.1734Z" fill="#414749"/>
<path d="M22.4116 16.1659C22.3918 18.6177 20.4198 20.5895 18.0073 20.5693C17.2443 20.5629 16.5292 20.3582 15.908 20.0039C14.5654 19.2365 13.6625 17.7686 13.6769 16.0924C13.6968 13.6396 15.6678 11.6678 18.0804 11.6889C19.7625 11.7027 21.2153 12.6831 21.9331 14.1069C22.2446 14.7238 22.4179 15.4241 22.4116 16.1659Z" fill="#585E60"/>
<path d="M21.9333 14.1068C22.2448 14.7237 22.4181 15.4241 22.4118 16.1658C22.392 18.6177 20.42 20.5895 18.0075 20.5693C17.2445 20.5629 16.5294 20.3581 15.9082 20.0038C17.4693 17.6216 19.5288 15.6049 21.9333 14.1068Z" fill="#414749"/>
<path d="M49.97 30.8723C49.97 40.067 43.2886 47.6756 34.5929 48.9541C33.7459 49.0781 32.8802 49.1425 31.9997 49.1425C28.1638 49.1425 24.609 47.9208 21.6909 45.8388C17.0582 42.5342 14.0293 37.0623 14.0293 30.8723C14.0293 20.7824 22.0753 12.6021 31.9997 12.6021C41.9241 12.6021 49.97 20.7824 49.97 30.8723Z" fill="#F9E8D4"/>
<path d="M37.3479 44.8374L34.5928 48.9541C33.7458 49.0781 32.8801 49.1425 31.9996 49.1425C28.1637 49.1425 24.6089 47.9208 21.6908 45.8388C21.1677 44.5991 20.8531 43.4616 20.6697 42.6345C20.544 42.0705 20.6753 41.4903 21.0272 41.0418C21.379 40.5951 21.9226 40.3283 22.483 40.3283C22.8768 40.3283 23.2546 40.4541 23.5758 40.6926C24.7617 41.5708 26.4585 43.0556 27.8091 45.1451C27.8631 45.2294 27.918 45.3145 27.9729 45.4007L34.104 41.8172L37.3479 44.8374Z" fill="#EFCDB1"/>
<path d="M49.9705 30.8723C49.9705 40.9622 41.9245 49.1424 32.0001 49.1424C31.6938 49.1424 31.3895 49.1348 31.0879 49.1197C40.5878 48.6352 48.1451 40.6508 48.1451 30.8723C48.1451 21.0937 40.5878 13.1094 31.0879 12.6249C31.3895 12.6097 31.6938 12.6022 32.0001 12.6022C41.9245 12.6021 49.9705 20.7824 49.9705 30.8723Z" fill="#EFCDB1"/>
<path d="M36.193 27.3632C36.193 27.3632 32.7825 28.5716 34.1477 33.0275C35.5129 37.4834 38.6287 40.5487 41.5328 39.016C44.437 37.4834 43.7476 31.3654 41.7923 28.672C39.8369 25.9786 36.193 27.3632 36.193 27.3632Z" fill="#585E60"/>
<path d="M27.8062 27.3632C27.8062 27.3632 31.2166 28.5716 29.8514 33.0275C28.4862 37.4834 25.3705 40.5486 22.4663 39.016C19.5621 37.4834 20.2516 31.3654 22.2069 28.672C24.1622 25.9786 27.8062 27.3632 27.8062 27.3632Z" fill="#585E60"/>
<path d="M31.9999 39.6617C33.0645 39.6617 33.9275 38.7843 33.9275 37.702C33.9275 36.6196 33.0645 35.7422 31.9999 35.7422C30.9353 35.7422 30.0723 36.6196 30.0723 37.702C30.0723 38.7843 30.9353 39.6617 31.9999 39.6617Z" fill="#8B5016"/>
<path d="M22.0317 42.3221C21.9378 41.8985 22.4091 41.5841 22.7542 41.8398C23.7533 42.5798 25.3747 43.9638 26.6426 45.9249C26.8076 46.1795 26.9653 46.4332 27.1164 46.6829C27.355 47.0783 27.5764 47.466 27.779 47.8426C28.1047 48.4471 28.3805 49.0222 28.6008 49.5462L26.6714 50.8359C26.0912 50.2144 25.4566 49.428 24.8236 48.5284C24.6079 48.2217 24.392 47.9029 24.1786 47.5718C23.9752 47.2571 23.7884 46.9401 23.6177 46.6235C22.7241 44.9698 22.2599 43.3512 22.0317 42.3221Z" fill="#009655"/>
<path d="M24.8242 48.5286L27.117 46.6831C27.3556 47.0786 27.577 47.4663 27.7796 47.8428C28.1053 48.4474 28.3811 49.0225 28.6014 49.5465L26.672 50.8362C26.0919 50.2146 25.4572 49.4282 24.8242 48.5286Z" fill="#006B42"/>
<path d="M23.6182 46.6236C24.4738 46.8307 25.5827 47.1481 27.7796 47.8427C28.1052 48.4473 28.3811 49.0224 28.6014 49.5463L26.672 50.8361C25.8936 50.0027 25.0196 48.8732 24.179 47.5719C23.9755 47.2571 23.7889 46.9402 23.6182 46.6236Z" fill="#006B42"/>
<path d="M17.2635 48.0598C16.8432 47.8435 16.9738 47.2021 17.4439 47.173C18.6777 47.097 20.5614 47.098 22.5892 47.5245C23.5442 47.725 24.4423 47.9534 25.2418 48.1917C25.6989 48.3276 26.1226 48.4669 26.5071 48.6067L26.1428 50.3984C25.2458 50.3401 24.1722 50.2022 23.0098 49.9882C22.7202 49.9346 22.424 49.8759 22.1242 49.8127C20.0961 49.3864 18.3664 48.6273 17.2635 48.0598Z" fill="#00C37A"/>
<path d="M23.0098 49.9883L25.2417 48.1917C25.6989 48.3276 26.1226 48.4669 26.5071 48.6067L26.1427 50.3984C25.2459 50.3401 24.1723 50.2023 23.0098 49.9883Z" fill="#009655"/>
<path d="M20.875 53.1168L34.8036 41.5696L37.3481 44.8374L23.4196 56.3845L20.875 53.1168Z" fill="#A4E869"/>
<path d="M20.875 53.1168L22.5608 51.7599C22.605 51.8071 22.6478 51.8573 22.6882 51.9093L24.9862 54.8604C25.0284 54.9147 25.0685 54.9708 25.1048 55.0281L23.4197 56.3845L20.875 53.1168Z" fill="#60DC4D"/>
<path d="M34.8043 41.5696L35.5374 42.511L21.609 54.058L20.876 53.1165L34.8043 41.5696Z" fill="#60DC4D"/>
<path d="M21.8355 52.5958L24.1332 55.5464C24.5003 56.0179 24.422 56.7028 23.9583 57.076C23.4945 57.4492 22.8209 57.3697 22.4538 56.8982L20.1561 53.9476C19.789 53.4761 19.8673 52.7912 20.331 52.418C20.7948 52.0446 21.4684 52.1243 21.8355 52.5958Z" fill="#A4E869"/>
<path d="M36.8331 40.4452C35.4071 40.4452 34.251 41.6205 34.251 43.0704C34.251 44.5202 35.4071 45.6956 36.8331 45.6956L38.4551 45.4965V40.4452H36.8331Z" fill="#F9E8D4"/>
<path d="M31.2423 13.3087C31.5158 13.2968 31.7635 13.291 31.9996 13.291C40.8222 13.291 48.21 20.004 49.1844 28.906C49.2229 29.258 49.5161 29.5184 49.8566 29.5184C49.8815 29.5184 49.9069 29.517 49.9322 29.5141C50.304 29.4721 50.5718 29.1316 50.5304 28.7538C50.2303 26.0121 49.3464 23.3958 47.9627 21.07C49.7646 20.2721 50.9827 18.4469 50.9994 16.4076C51.011 15.0374 50.497 13.745 49.552 12.7682C48.6071 11.7916 47.3448 11.2475 45.9976 11.2362C43.9155 11.2194 42.0527 12.505 41.2823 14.4287C38.479 12.7911 35.2868 11.9141 31.9996 11.9141C31.744 11.9141 31.4773 11.9202 31.1842 11.9331C30.8106 11.9494 30.5207 12.2706 30.5368 12.6504C30.5528 13.0303 30.8679 13.3258 31.2423 13.3087ZM45.9863 12.6132C46.9719 12.6215 47.8954 13.0194 48.5864 13.7338C49.2775 14.4481 49.6535 15.3935 49.645 16.3959C49.6322 17.9698 48.6419 19.3697 47.2037 19.8964C46.4151 18.7688 45.5021 17.7229 44.4741 16.7814C43.8342 16.1954 43.1593 15.6587 42.4548 15.173C42.9571 13.6421 44.3772 12.5989 45.9863 12.6132Z" fill="black"/>
<path d="M49.9812 31.0106C49.6043 30.9914 49.2911 31.2879 49.2746 31.6678C48.9 40.2226 42.4348 47.2202 34.2346 48.3066L36.5681 46.372C36.6556 46.3791 36.7438 46.3838 36.8331 46.3838C37.2072 46.3838 37.5103 46.0756 37.5103 45.6953C37.5103 45.315 37.2072 45.0068 36.8331 45.0068C35.7828 45.0068 34.9282 44.138 34.9282 43.0701C34.9282 42.0023 35.7828 41.1334 36.8331 41.1334C37.2072 41.1334 37.5103 40.8252 37.5103 40.4449C37.5103 40.0646 37.2072 39.7565 36.8331 39.7565C35.6923 39.7565 34.6872 40.3559 34.1047 41.2607L32.6773 42.4441V40.2589C33.7862 39.955 34.6049 38.924 34.6049 37.702C34.6049 36.2417 33.4364 35.0536 32.0001 35.0536C30.5637 35.0536 29.3953 36.2416 29.3953 37.702C29.3953 38.924 30.214 39.9549 31.3229 40.2589V43.5667L27.7943 46.4919C27.6056 46.1748 27.4106 45.8586 27.209 45.5468C25.9154 43.5465 24.2894 42.1238 23.1527 41.2824C22.7652 40.9957 22.2563 40.9833 21.8563 41.2507C21.4565 41.5179 21.2661 41.9978 21.3714 42.4734C21.5502 43.2801 21.8408 44.317 22.3028 45.4343C17.571 42.1847 14.7069 36.7779 14.7069 30.8721C14.7069 22.5496 20.5193 15.3046 28.5274 13.6452C28.8939 13.5693 29.1304 13.2057 29.0557 12.8331C28.9809 12.4605 28.6233 12.2198 28.2569 12.296C26.3315 12.6949 24.4862 13.4071 22.7899 14.3888C22.084 12.4045 20.2115 11.018 18.0866 11C18.0716 11.0003 18.0568 11.0002 18.0419 11.0002C16.7108 11.0002 15.4569 11.522 14.5069 12.472C13.5463 13.4327 13.0112 14.7163 13.0002 16.0864C12.9825 18.2237 14.2489 20.1067 16.151 20.8841C14.3344 23.8668 13.3526 27.3333 13.3526 30.8724C13.3526 34.4254 14.3253 37.8893 16.1655 40.8899C17.5824 43.2003 19.4675 45.166 21.6819 46.664C19.9879 46.4116 18.4586 46.4212 17.4028 46.4855C16.8825 46.518 16.4622 46.8884 16.3569 47.4072C16.2516 47.9259 16.4933 48.435 16.9577 48.6737C18.0884 49.256 19.8789 50.0433 21.9875 50.4871C22.2557 50.5433 22.5214 50.5949 22.7856 50.6443L21.6182 51.6121C21.4843 51.5605 21.344 51.5234 21.198 51.5061C20.7342 51.4517 20.2771 51.5834 19.911 51.8781C19.5449 52.1729 19.3136 52.5948 19.2597 53.0664C19.2058 53.538 19.3357 54.0026 19.6255 54.3749L21.9232 57.3256C22.2131 57.6978 22.6281 57.933 23.092 57.9879C23.1607 57.996 23.2293 58 23.2973 58C23.6892 58 24.0672 57.867 24.379 57.6158C24.7452 57.3212 24.9765 56.8992 25.0304 56.4276C25.049 56.265 25.0442 56.1036 25.0201 55.9461L32.4149 49.8154C32.4473 49.8203 32.4802 49.8236 32.5139 49.8236C32.5203 49.8236 32.5268 49.8235 32.5333 49.8233C37.2557 49.6884 41.7124 47.756 45.0825 44.3817C48.4487 41.0113 50.4181 36.5179 50.6277 31.7291C50.6442 31.3492 50.3548 31.0275 49.9812 31.0106ZM30.7495 37.7022C30.7495 37.0012 31.3104 36.4308 31.9999 36.4308C32.6894 36.4308 33.2503 37.0012 33.2503 37.7022C33.2503 38.4032 32.6894 38.9735 31.9999 38.9735C31.3104 38.9734 30.7495 38.4032 30.7495 37.7022ZM14.3544 16.0979C14.3626 15.0955 14.7541 14.1564 15.4567 13.4536C16.1594 12.7508 17.0882 12.3672 18.0752 12.3772C19.7286 12.3911 21.1731 13.5369 21.6039 15.1368C20.1172 16.1529 18.7696 17.3868 17.6156 18.8073C17.3776 19.1001 17.1497 19.4001 16.9305 19.706C15.3896 19.2139 14.3407 17.7615 14.3544 16.0979ZM35.058 45.8472L24.3544 54.721L22.6505 52.5329L33.5969 43.4584C33.7122 44.4579 34.2664 45.3224 35.058 45.8472ZM26.0771 46.3034C26.3047 46.6555 26.524 47.0131 26.7336 47.3714L25.5415 48.3595C25.2713 47.9846 25.0041 47.5955 24.744 47.194C23.707 45.5893 23.1339 43.8951 22.8374 42.768C23.7372 43.4914 25.0387 44.6976 26.0771 46.3034ZM22.2613 49.1387C20.7303 48.8164 19.3758 48.2977 18.352 47.8264C19.4783 47.8086 20.9252 47.8778 22.4526 48.1986C22.9834 48.3103 23.5103 48.4344 24.0239 48.5674C24.178 48.793 24.3335 49.0146 24.4904 49.231L24.1832 49.4856C23.5614 49.3915 22.9171 49.2759 22.2613 49.1387ZM23.6849 56.2685C23.6728 56.3747 23.6207 56.4698 23.5382 56.5363C23.4557 56.6028 23.3527 56.6325 23.2482 56.62C23.1438 56.6077 23.0502 56.5548 22.9849 56.4709L20.6872 53.5201C20.622 53.4362 20.5927 53.3316 20.6048 53.2254C20.617 53.1192 20.6691 53.0241 20.7515 52.9576C20.8218 52.9011 20.9069 52.8711 20.9952 52.8711C21.0106 52.8711 21.026 52.8721 21.0414 52.8739C21.1459 52.8862 21.2395 52.9392 21.3047 53.0231L23.6024 55.9738C23.6678 56.0576 23.6971 56.1622 23.6849 56.2685Z" fill="black"/>
<path d="M33.5011 33.2322C34.4876 36.4518 36.2983 38.892 38.3448 39.7594C38.8857 39.9888 39.4332 40.1032 39.9749 40.1031C40.6133 40.1031 41.2437 39.9441 41.8447 39.6269C42.8908 39.0748 43.6211 38.0068 43.9565 36.5379C44.5452 33.9597 43.8339 30.325 42.337 28.263C40.1041 25.187 36.1241 26.6543 35.9557 26.7182L35.9558 26.7183C35.6948 26.8194 32.0056 28.3509 33.5011 33.2322ZM35.1502 29.0018C35.6978 28.2849 36.4129 28.0144 36.42 28.0117C36.4228 28.0106 36.4259 28.0096 36.4284 28.0087C36.5581 27.9601 39.6245 26.8452 41.2474 29.0809C42.5148 30.8268 43.1382 34.0323 42.6372 36.2266C42.4677 36.9687 42.0844 37.9492 41.2208 38.4049C40.4664 38.803 39.6741 38.8313 38.866 38.4886C37.2101 37.7867 35.6499 35.6157 34.7941 32.8227C34.3075 31.2338 34.4272 29.9483 35.1502 29.0018Z" fill="black"/>
<path d="M28.0438 26.7183C27.8754 26.6543 23.8955 25.1871 21.6625 28.2631C21.1601 28.9552 20.7253 29.862 20.405 30.8853C20.2916 31.2476 20.4886 31.6348 20.845 31.7501C21.2013 31.8654 21.5822 31.665 21.6956 31.3029C21.9715 30.4214 22.3369 29.653 22.7523 29.0809C24.3751 26.8454 27.4415 27.9601 27.5697 28.008C27.5744 28.0099 27.5791 28.0115 27.5838 28.0133C27.6979 28.0537 30.3624 29.046 29.2054 32.8228C28.3496 35.6158 26.7894 37.7868 25.1334 38.4888C24.3254 38.8312 23.5331 38.8032 22.7788 38.4051C21.6721 37.821 21.0835 36.1748 21.2043 34.0016C21.2253 33.622 20.9397 33.2969 20.5664 33.2754C20.1923 33.254 19.8731 33.5443 19.852 33.924C19.698 36.6947 20.5373 38.7735 22.1548 39.6271C22.7559 39.9443 23.386 40.1033 24.0245 40.1033C24.5661 40.1033 25.1138 39.9889 25.6546 39.7596C27.7011 38.8921 29.5119 36.4519 30.4983 33.2323C31.994 28.3509 28.3047 26.8195 28.0438 26.7183Z" fill="black"/>
<path d="M35.9409 33.6155C36.3149 33.6155 36.618 33.3074 36.618 32.9271V32.869C36.618 32.4887 36.3149 32.1805 35.9409 32.1805C35.5668 32.1805 35.2637 32.4887 35.2637 32.869V32.9271C35.2637 33.3074 35.5668 33.6155 35.9409 33.6155Z" fill="black"/>
<path d="M28.7362 32.9271V32.869C28.7362 32.4887 28.433 32.1805 28.059 32.1805C27.685 32.1805 27.3818 32.4887 27.3818 32.869V32.9271C27.3818 33.3074 27.685 33.6155 28.059 33.6155C28.433 33.6155 28.7362 33.3074 28.7362 32.9271Z" fill="black"/>
</svg>
