<svg width="263" height="242" viewBox="0 0 263 242" fill="none" xmlns="http://www.w3.org/2000/svg">
<path d="M203.149 56.7645C204.26 56.5241 205.343 54.6287 207.137 57.998L207.137 57.9978C208.146 57.6012 209.154 57.2045 210.175 56.8361C211.483 56.3453 215.107 56.9339 216.379 57.8251C218.73 59.4895 218.646 59.4589 219.412 63.4327C219.732 65.063 220.481 66.7774 221 68.4562C221.315 69.4886 222.022 71.1876 221.81 71.4446C221.293 72.0317 220.622 72.3843 221.48 73.6853C222.79 75.6272 222.143 72.6027 222.553 73.0614C223.165 73.7543 223.671 74.8498 224.129 75.8421L224.148 75.8818C224.671 77.0255 226.818 74.7769 226.217 78.4333C226.129 78.9377 227.774 80.7033 228.517 81.9866C229.402 83.4762 229.628 85.3466 231.15 86.5312C231.762 87.0037 230.858 89.8227 229.696 89.6512C227.575 89.3221 227.406 92.5275 225.652 92.8085C225.565 92.8125 225.489 93.1783 225.537 93.2911C228.305 98.445 223.62 96.7083 223.944 99.6037C221.594 98.9054 220.716 100.947 219.786 102.91C217.325 101.492 217.812 104.351 217.502 106.051C217.474 106.196 217.625 106.465 217.694 106.669C218.057 107.814 219.322 109.442 217.909 109.644C217.526 109.707 216.707 108.289 216.065 107.83C215.778 107.618 215.217 107.891 215.095 108.276C214.573 109.899 217.397 110.495 216.685 112.299C217.017 112.491 217.538 113.002 217.665 112.881C218.702 111.673 220.978 113.536 221.64 111.32C221.708 111.104 222.227 113.587 222.659 115.11C222.864 115.064 223.067 115.081 223.257 115.198C223.278 116.895 222.995 116.292 222.659 115.11C222.209 115.21 221.749 115.613 221.392 115.926L221.39 115.927C220.411 116.811 221.026 119.216 222.488 120.426C222.934 120.803 223.419 121.23 223.865 121.439C225.627 122.222 225.298 123.462 225.07 124.726L225.061 124.776C225.004 125.092 224.936 125.47 225.002 125.822L225.036 126.005C225.347 127.679 225.355 127.725 224.95 127.544C224.643 127.408 224.318 126.98 224.046 126.929C222.507 126.752 220.845 126.16 219.648 127.204C219.382 127.417 218.854 127.142 218.45 127.115C218.468 126.74 218.514 126.387 218.503 126.025C218.385 124.576 219.615 123.484 218.35 121.857C216.435 119.373 217.043 123.647 215.616 123.022C215.086 122.782 214.587 123.328 214.112 123.597C212.952 124.225 210.013 124.111 208.707 123.434C208.303 123.24 207.76 123.138 207.518 123.408C206.94 124.021 207.899 126.479 206.463 126.124C204.9 125.724 205.518 127.76 205.429 128.765C205.25 130.941 206.143 129.561 206.64 129.849C207.569 130.353 208.24 131.8 207.644 132.288C206.39 133.322 206.784 134.121 208.225 135.407C208.372 135.544 208.543 136.405 208.425 136.589C207.674 138.009 206.818 139.307 206.067 140.728C205.982 140.864 206.294 141.764 206.523 141.966C208.383 143.774 208.557 144.1 208.217 145.478C208.174 145.63 208.129 145.816 208.035 145.889C207.521 146.275 206.51 146.539 208.192 147.555C208.798 147.931 209.761 148.054 209.976 147.595C210.261 147.007 209.967 145.732 209.923 144.751C209.9 144.361 209.891 143.964 209.868 143.574C210.133 143.861 210.462 144.088 210.663 144.435C210.988 145.03 211.235 145.692 211.496 146.347C212.461 148.736 213.721 149.766 214.96 148.904C216.123 148.075 217.553 148.499 218.996 148.784C219.252 148.841 219.535 149.087 219.813 149.236C219.701 149.517 219.645 149.974 219.449 150.057C218.712 150.338 217.911 151.013 217.136 150.577C215.876 149.88 215.803 150.212 216.455 151.7C217.084 153.133 217.534 154.274 216.318 154.559C216.215 154.57 216.409 155.82 216.674 156.274C216.903 156.643 217.533 156.908 217.832 156.814C219.01 156.479 220.058 155.798 221.281 155.61C221.71 155.528 222.472 156.436 223.099 156.902C222.878 157.263 222.72 157.73 222.424 157.957C221.094 158.857 219.729 159.672 218.387 160.544C218.218 160.65 218.009 161.039 217.97 160.989C215.653 158.276 214.995 160.457 213.84 161.516C213.175 162.133 211.6 161.37 211.14 162.133C210.126 163.899 209.422 166.099 208.884 168.396C208.562 169.733 207.275 170.315 208.173 172.799C208.429 173.523 208.232 174.108 209.039 174.663C209.368 174.89 209.955 175.973 209.903 176.229C209.684 177.222 208.989 177.852 208.969 178.894C208.942 180.672 208.203 179.987 207.326 179.727C206.885 179.615 206.783 181.259 206.254 181.484C204.925 182.051 203.524 182.615 201.997 182.466C200.901 182.366 200.056 182.226 199.74 183.661C199.627 184.109 199.11 184.696 199.017 184.603C196.631 182.02 196.924 185.595 195.906 186.096C194.634 186.671 193.873 188.696 192.521 188.705C191.138 188.728 190.514 189.861 189.445 190.283C188.047 190.813 186.669 191.433 185.295 192.019C184.042 192.553 182.836 193.2 181.523 193.594C180.297 193.983 178.268 192.448 178.016 195.122C176.53 193.689 176.133 196.525 174.638 195.028C173.967 197.348 172.012 197.281 170.64 198.333C168.071 200.262 164.592 199.511 161.678 200.42C160.705 200.734 159.11 199.881 157.868 198.977C156.502 197.992 156.293 200.182 155.076 199.167C153.713 201.581 151.988 202.85 148.904 200.431C148.66 200.235 148.28 201.898 147.824 201.792C146.557 201.498 145.221 200.835 143.918 200.123C142.561 199.368 138.703 198.313 137.625 198.672C136.622 199 135.776 199.527 134.374 198.625C133.439 198.023 132.178 197.827 131.58 198.349C130.588 199.205 130.015 200.749 128.659 201.127C128.375 201.215 127.201 202.982 129.324 204.278C129.202 204.663 129.162 205.28 128.908 205.355C126.897 206.079 125.969 208.508 124.635 210.277C124.339 210.67 124.159 211.713 123.921 211.615C122.95 211.095 120.56 211.421 121 213.5L117.579 214.5C116.892 214.85 117.186 215.968 116.5 216.309C113.869 217.616 110.546 217.879 110.821 216.932C110.35 217 109.542 216.778 109.459 217.213C109.116 218.626 108.924 219.808 107.425 217.38C107.145 216.933 106.414 216.977 105.908 216.793C105.443 216.625 104.991 216.484 104.541 216.309C104.813 216.026 105.278 215.861 105.333 215.404C105.514 214.027 103.075 210.734 101.885 211.041C100.176 211.469 98.4399 209.909 96.7236 209.274C95.149 208.678 93.6603 209.08 91.982 207.362C91.0359 206.398 90.9263 206.978 90.5596 207.835C90.2838 208.485 89.0653 207.972 88.3616 208.205C86.3684 208.888 84.5704 204.754 82.6175 204.82C81.182 202.331 78.5774 200.408 79.1357 196.903C79.148 196.764 78.2561 195.845 77.7589 195.39C77.2888 194.957 76.7672 194.612 76.2727 194.29C75.4256 193.684 74.4675 192.693 73.7582 192.662C72.7743 192.614 71.9613 193.261 71.1334 193.747C71.0096 193.833 71.0809 194.503 71.207 194.883C72.0538 197.455 71.2796 198.319 70.0051 198.762C69.7968 198.817 69.7808 199.324 69.6536 199.612C70.0669 199.702 70.4713 199.73 70.8936 199.883C71.1621 199.969 71.4334 200.186 71.7078 200.37C71.5805 200.657 71.5195 201.016 71.3291 201.198C70.1804 202.187 68.5592 200.645 67.1922 200.494C66.7184 200.43 66.3464 200.855 65.9205 201.07C66.3243 201.431 67.0238 201.9 67.0596 202.151C67.1488 202.946 66.9846 203.65 66.932 204.406C66.5975 204.081 66.2661 203.723 65.9285 203.433C65.5518 203.094 65.127 202.641 64.771 202.56C64.2581 202.445 63.8676 203.078 63.6923 201.453C63.4991 199.702 64.066 196.426 61.1904 197.719C60.8431 197.867 59.8393 197.061 59.4179 196.408C58.1205 194.327 56.7107 192.695 55.0769 191.458C54.8447 191.29 54.5111 190.465 54.5388 190.154C54.6345 188.913 54.1406 188.257 53.2786 187.491C51.9978 186.37 50.6735 185.901 49.4242 183.933C48.4941 182.463 46.6533 182.247 45.9936 179.695C45.9276 179.457 45.3489 178.937 45.213 178.994C44.1799 179.502 42.6605 178.449 42.418 177.252C42.008 175.16 41.1853 172.644 42.2142 171.039C42.65 170.386 42.6883 169.136 42.8108 168.084C42.8293 167.876 42.4288 167.314 42.1788 167.02C42.1125 166.948 41.759 167.166 41.7405 167.374C41.5959 169.002 40.758 168.293 39.7867 167.94C38.2664 167.388 38.5014 164.087 36.9014 164.269C34.9814 164.454 35.1096 161.866 34.3391 160.561C33.9479 159.895 33.8589 158.932 33.6551 158.119C34.1249 158.719 34.5766 159.36 35.0646 159.919C35.17 160.04 35.5658 159.838 35.563 159.706C35.4738 158.911 36.4619 158.256 35.0149 157.206C34.632 156.936 34.0615 155.179 34.0766 155.173C35.847 154.218 36.1443 153.325 33.3252 151.526C32.2247 150.828 32.2885 148.801 33.3792 148.136C34.4549 147.478 34.4247 147.49 33.4651 145.533C33.1192 144.847 32.8309 144.003 32.7053 143.29C32.2956 141.031 32.4078 138.949 31.259 136.506C30.856 135.644 30.9503 133.437 31.3217 133.345C32.8856 133.079 32.6446 131.048 33.0636 129.602C33.27 128.914 34.4505 128.711 33.4806 127.524C32.577 126.41 31.549 123.914 30.4764 124.538C28.5458 125.661 28.0038 123.092 27.4694 121.42C27.0161 119.979 27.3612 117.565 26.9454 117.176C25.3633 115.683 26.9832 114.46 25.8351 113.315C26.1987 112.494 26.352 111.095 26.962 110.935C27.8981 110.703 29.1437 111.238 30.2599 111.596C30.3866 111.642 30.8251 112.922 30.749 113.288C30.6363 113.902 30.2101 114.284 29.9195 114.775C30.4567 114.779 31.0902 115.009 31.5161 114.794C32.3107 114.355 32.9939 113.697 33.6772 113.039C34.0128 112.696 33.717 110.956 33.1814 109.951C32.2096 108.131 31.8958 106.265 32.7032 105.354C34.1307 103.679 36.0219 102.673 36.1573 99.3478C39.4019 97.6647 40.1311 93.0535 41.1134 88.7011C41.2532 88.1081 41.7759 87.7853 42.2441 87.5857C43.7303 86.8855 45.2495 86.3046 46.7477 85.6326C47.2039 85.4048 47.5879 85.0077 48.011 84.6607C47.6075 84.1326 46.8482 83.3562 46.8577 83.0855C46.9229 82.0243 46.7383 80.5028 47.9664 80.7461C48.609 80.8721 49.2579 80.9289 49.9067 80.9857C49.5032 80.4576 49.0725 79.9078 48.7173 79.3258C48.6661 79.2477 48.9055 78.6789 49.1019 78.5952C50.1803 78.0688 51.4453 77.8963 51.3586 75.5997C51.3416 74.9736 51.8525 74.4557 52.2785 74.2408C53.2965 73.7402 54.2457 72.8688 55.7711 74.0188C55.7113 71.9107 57.1594 72.2935 58.0356 71.7533C58.3589 71.5488 58.7938 71.3968 59.201 71.5565C60.0034 71.8479 61.1665 72.9855 61.5595 72.6513C62.8592 71.5973 64.135 70.32 64.9168 68.5533C65.4834 67.245 65.3086 67.0861 66.4435 68.8692C68.5357 72.1444 70.7278 71.6766 72.8016 71.5593C73.3721 71.5161 73.9846 71.6551 74.5881 71.7311C73.5439 68.1093 74.9942 68.9578 76.6686 69.4108C77.8754 69.7298 78.9726 68.8287 79.9487 68.1459C80.2418 67.9543 79.9272 66.5883 79.8833 65.7736C80.5612 66.4847 81.2755 67.1136 81.9321 67.9004C83.2846 69.5241 83.7693 68.4841 84.3533 67.6351C85.3215 66.2222 85.1524 62.7274 87.9983 64.7145C88.0948 64.7733 88.3764 64.2199 88.3253 64.1417C86.758 61.0095 89.3153 62.3196 89.4563 61.0594C89.5453 60.2214 87.9143 57.3163 90.3829 59.2976C90.4763 59.3911 90.7944 56.9554 91.321 56.0975C91.8446 55.2742 93.006 55.6125 93.3316 54.0736C93.5355 53.0866 94.8726 53.0833 95.6823 52.6382C96.4769 52.1995 96.5286 51.9441 95.8747 51.2894C95.408 50.6549 94.3914 50.3216 94.3791 50.4602C94.1852 52.643 92.4238 51.8604 91.5261 52.6431C91.3538 52.7832 90.995 52.5695 90.6963 52.4968C90.6851 51.9682 90.5084 51.1768 90.705 50.9263C91.6822 49.5763 92.7769 48.3763 93.8173 47.1327C94.5794 46.2411 93.4901 46.0721 93.2194 45.5208C92.9486 44.9694 92.8961 43.9251 93.093 43.5078C93.59 42.3292 93.8526 44.1174 94.2114 44.3311C94.7209 44.6473 95.3664 44.9055 95.7742 44.7317C97.683 44.018 99.5467 43.1568 101.447 42.3803C102.066 42.1164 102.676 41.7895 103.34 41.6731C104.047 41.5719 104.988 43.4041 105.019 44.6909C105.036 45.3171 105.185 46.4203 105.415 46.6227C105.939 47.0992 106.941 48.572 106.957 46.5986C106.952 46.1674 107.453 45.9203 107.8 45.7723C109.504 45.0794 111 43.7749 113.295 44.9301C114.102 42.5526 115.417 41.3253 117.917 42.7932C117.875 39.0108 120.763 42.6466 121.942 41.4772C123.04 40.4093 124.455 39.2062 126.514 40.3952C126.638 40.4758 126.861 40.5807 126.879 40.5396C127.475 37.9187 129.166 37.5312 131.08 37.2486C132.994 36.9661 134.692 36.0089 136.348 35.0364C137.451 34.3997 138.271 33.1834 139.289 32.3491C140.226 31.6164 141.208 31.1979 141.958 29.9445C142.9 28.3431 144.932 27.8768 146.725 27.8126C147.745 27.7777 149.339 29.2983 150.535 30.5553C152.897 33.082 155.108 34.3733 157.288 33.7105C157.512 33.6486 157.579 33.22 157.73 32.9888C157.501 32.7864 157.164 32.3301 157.028 32.3881C155.415 33.0423 155.659 31.6049 155.938 30.5857C156.093 29.9862 156.55 29.5917 156.991 29.3703C158.329 28.6998 159.706 28.0793 161.129 27.6063C162.086 27.2982 162.386 26.7037 161.637 24.9893C161.565 24.8201 162.052 24.2458 162.372 24.076C162.523 24.0116 162.954 24.3946 163.174 24.7009C163.406 25.0355 163.52 25.5537 163.745 25.9575C164.257 26.9062 164.814 27.8356 165.355 28.7714C165.688 28.1294 166.13 27.5745 166.331 26.7889C166.616 25.7004 166.017 24.9225 165.14 24.1629C163.964 23.1639 163.574 21.9969 164.707 21.514C165.401 21.2179 166.247 21.191 167.067 21.2744C167.426 21.3213 167.896 21.9211 168.342 22.2977C168.094 22.6368 167.822 22.9195 167.586 23.2868C167.317 23.7016 167.059 24.1447 166.805 24.5531C167.27 24.8885 167.725 25.328 168.183 25.5659C168.572 25.7668 173.431 24.062 173.83 23.9921C174.696 23.8895 175.764 24.301 176.48 23.9292C177.241 23.538 177.6 22.2852 178.337 21.8375C178.645 21.6395 179.528 22.4965 180.088 23.0577C180.221 23.2012 180.129 24.0738 180.125 24.6089C180.122 24.8103 180.103 25.0182 180.046 25.1761C179.691 26.2275 179.254 27.2136 179.02 28.3802C178.965 28.6703 182.996 29.5855 182.994 28.7862C182.964 25.3655 185.145 27.8027 186.286 27.7163C186.929 27.6755 188.518 28.5983 187.962 30.602C189.778 31.4282 190.75 35.0476 192.642 35.3411L192.65 35.3425C193.432 35.4725 193.773 35.5292 193.545 36.6229C193.192 38.3068 193.188 40.8088 192.266 41.3683C191.194 41.9922 190.906 44.4151 188.862 43.2198C188.129 42.7987 187.183 43.4686 186.66 44.1251C186.118 44.8226 184.46 45.6629 187.079 47.5798C187.312 47.7475 187.666 48.4963 187.645 48.7388C187.344 51.9675 188.236 52.7206 190.082 51.7338C190.157 51.7016 190.56 52.3964 190.792 52.7309C188.981 54.9701 191.988 57.5882 192.531 59.9906C192.561 60.1445 193.499 60.3779 194.015 60.6248C195.357 61.2194 196.215 62.1868 196.052 64.19C195.987 64.9176 196.001 65.7452 196.193 66.5301C196.319 67.0765 196.822 67.6288 197.153 68.1543C198.292 65.9688 202.209 73.0661 202.409 67.7141C203.596 68.9081 204.472 68.5348 205.236 67.9421C205.581 67.6619 205.688 66.9496 205.906 66.4566C205.402 66.0711 204.812 65.356 204.447 65.3784C202.953 65.5154 201.417 65.3034 199.768 63.906C199.403 63.5948 199.079 62.8331 198.88 62.2842C198.799 62.0521 199.171 61.4601 199.211 61.51C201.034 63.2331 200.934 59.7753 202.454 60.6609C202.743 60.8376 203.039 60.6113 203.335 60.5518C203.022 59.9852 202.731 59.176 202.402 58.9494C201.866 58.6114 201.31 58.6482 200.755 58.5182C201.124 58.1275 201.442 57.6587 201.85 57.3181C202.176 57.079 202.59 57.0027 203.149 56.7645Z" fill="#FFE68E"/>
<path d="M190.789 66.3553C190.748 71.5076 187.979 75.9992 183.868 78.4736C181.694 79.783 179.143 80.5262 176.42 80.5026C168.551 80.4378 162.222 73.9967 162.287 66.1164C162.307 63.5889 162.985 61.2207 164.155 59.171C166.629 54.8327 171.311 51.9248 176.659 51.972C184.528 52.0369 190.857 58.475 190.789 66.3553Z" fill="#585E60"/>
<path d="M183.868 78.4722C181.694 79.7817 179.143 80.5249 176.42 80.5013C168.551 80.4364 162.222 73.9953 162.287 66.1151C162.307 63.5876 162.985 61.2194 164.155 59.1697C172.054 64.0775 178.798 70.6834 183.868 78.4722Z" fill="#414749"/>
<path d="M99.7127 65.5967C99.6479 73.474 93.2131 79.8089 85.3406 79.7441C82.8509 79.7234 80.5174 79.0657 78.4904 77.9273C74.1092 75.4618 71.1629 70.746 71.21 65.3608C71.2748 57.4805 77.7067 51.1456 85.5792 51.2134C91.0682 51.2577 95.8088 54.4074 98.1512 58.9816C99.1676 60.9638 99.7333 63.2138 99.7127 65.5967Z" fill="#585E60"/>
<path d="M98.1511 58.9814C99.1676 60.9633 99.7333 63.2136 99.7127 65.5965C99.6479 73.4738 93.2131 79.8087 85.3405 79.7439C82.8509 79.7232 80.5174 79.0655 78.4904 77.9272C83.5845 70.2737 90.3051 63.7946 98.1511 58.9814Z" fill="#414749"/>
<path d="M189.64 112.845C189.64 142.385 167.837 166.83 139.462 170.938C136.698 171.336 133.873 171.543 131 171.543C118.483 171.543 106.883 167.618 97.3607 160.929C82.2434 150.312 72.3597 132.732 72.3597 112.845C72.3597 80.4285 98.6149 54.1472 131 54.1472C163.385 54.1472 189.64 80.4285 189.64 112.845Z" fill="#F9E8D4"/>
<path d="M148.452 157.712L139.462 170.938C136.698 171.336 133.873 171.543 131 171.543C118.483 171.543 106.883 167.618 97.3604 160.929C95.6533 156.946 94.6268 153.291 94.0285 150.634C93.6183 148.822 94.0467 146.958 95.1949 145.517C96.3431 144.082 98.1168 143.225 99.9455 143.225C101.23 143.225 102.463 143.629 103.511 144.395C107.381 147.217 112.918 151.987 117.326 158.7C117.502 158.971 117.681 159.244 117.86 159.521L137.867 148.008L148.452 157.712Z" fill="#EFCDB1"/>
<path d="M189.64 112.845C189.64 145.261 163.385 171.542 131 171.542C130 171.542 129.007 171.518 128.023 171.47C159.023 169.913 183.683 144.261 183.683 112.845C183.683 81.4285 159.023 55.7769 128.023 54.2203C129.007 54.1716 130 54.1475 131 54.1475C163.385 54.1472 189.64 80.4284 189.64 112.845Z" fill="#EFCDB1"/>
<path d="M144.683 101.571C144.683 101.571 133.554 105.453 138.009 119.769C142.464 134.085 152.631 143.933 162.108 139.009C171.585 134.085 169.335 114.429 162.955 105.776C156.574 97.1228 144.683 101.571 144.683 101.571Z" fill="#585E60"/>
<path d="M117.316 101.571C117.316 101.571 128.445 105.453 123.99 119.769C119.535 134.085 109.368 143.933 99.8915 139.009C90.4147 134.085 92.6645 114.429 99.045 105.776C105.426 97.1228 117.316 101.571 117.316 101.571Z" fill="#585E60"/>
<path d="M131 141.084C134.474 141.084 137.29 138.265 137.29 134.787C137.29 131.31 134.474 128.491 131 128.491C127.526 128.491 124.71 131.31 124.71 134.787C124.71 138.265 127.526 141.084 131 141.084Z" fill="#8B5016"/>
<path d="M98.4723 149.63C98.1659 148.27 99.7039 147.26 100.83 148.081C104.09 150.458 109.381 154.905 113.519 161.205C114.057 162.023 114.572 162.838 115.065 163.641C115.843 164.911 116.566 166.157 117.227 167.366C118.29 169.309 119.19 171.156 119.909 172.84L113.613 176.983C111.719 174.987 109.649 172.46 107.583 169.57C106.879 168.584 106.175 167.56 105.478 166.496C104.814 165.485 104.205 164.467 103.648 163.45C100.732 158.137 99.2172 152.937 98.4723 149.63Z" fill="#009655"/>
<path d="M107.583 169.571L115.064 163.642C115.843 164.912 116.565 166.158 117.227 167.367C118.289 169.31 119.189 171.157 119.908 172.841L113.612 176.984C111.719 174.987 109.648 172.461 107.583 169.571Z" fill="#006B42"/>
<path d="M103.647 163.45C106.44 164.116 110.058 165.135 117.227 167.367C118.289 169.309 119.19 171.157 119.908 172.84L113.613 176.984C111.072 174.307 108.22 170.678 105.478 166.497C104.814 165.486 104.205 164.468 103.647 163.45Z" fill="#006B42"/>
<path d="M82.9134 168.065C81.5419 167.37 81.9679 165.309 83.5021 165.216C87.5279 164.971 93.6748 164.974 100.292 166.345C103.408 166.989 106.339 167.723 108.948 168.488C110.439 168.925 111.822 169.373 113.077 169.822L111.888 175.578C108.961 175.391 105.457 174.948 101.664 174.26C100.719 174.088 99.7528 173.899 98.7746 173.696C92.1566 172.326 86.5123 169.888 82.9134 168.065Z" fill="#00C37A"/>
<path d="M101.664 174.26L108.948 168.488C110.439 168.925 111.822 169.372 113.077 169.822L111.888 175.578C108.961 175.391 105.458 174.948 101.664 174.26Z" fill="#009655"/>
<path d="M94.6975 184.312L140.149 147.213L148.452 157.712L103.001 194.81L94.6975 184.312Z" fill="#A4E869"/>
<path d="M94.6975 184.311L100.199 179.952C100.343 180.104 100.482 180.265 100.614 180.432L108.113 189.913C108.251 190.088 108.382 190.268 108.5 190.452L103.001 194.81L94.6975 184.311Z" fill="#60DC4D"/>
<path d="M140.149 147.213L142.541 150.238L97.0906 187.335L94.6985 184.311L140.149 147.213Z" fill="#60DC4D"/>
<path d="M97.8324 182.638L105.33 192.117C106.528 193.632 106.272 195.832 104.759 197.031C103.246 198.231 101.048 197.975 99.8498 196.46L92.3523 186.981C91.1543 185.466 91.4097 183.265 92.923 182.066C94.4362 180.867 96.6345 181.123 97.8324 182.638Z" fill="#A4E869"/>
<path d="M146.771 143.601C142.118 143.601 138.345 147.377 138.345 152.035C138.345 156.693 142.118 160.469 146.771 160.469L152.064 159.829V143.601H146.771Z" fill="#F9E8D4"/>
<path d="M128.529 56.4175C129.421 56.3792 130.229 56.3606 131 56.3606C159.79 56.3606 183.897 77.9278 187.077 106.528C187.202 107.659 188.159 108.495 189.27 108.495C189.351 108.495 189.434 108.491 189.517 108.482C190.73 108.347 191.604 107.253 191.469 106.039C190.49 97.2304 187.606 88.8249 183.09 81.3525C188.97 78.7893 192.945 72.9251 192.999 66.3734C193.037 61.9714 191.36 57.819 188.276 54.681C185.193 51.5433 181.074 49.7953 176.678 49.7591C169.883 49.7051 163.805 53.8352 161.291 60.0158C152.143 54.7544 141.727 51.9368 131 51.9368C130.166 51.9368 129.296 51.9565 128.339 51.9978C127.12 52.0503 126.174 53.0822 126.227 54.3023C126.279 55.523 127.307 56.4723 128.529 56.4175ZM176.641 54.1829C179.857 54.2094 182.87 55.4879 185.125 57.783C187.381 60.078 188.608 63.1154 188.58 66.336C188.538 71.3924 185.306 75.8899 180.614 77.5822C178.04 73.9594 175.061 70.5991 171.706 67.5743C169.618 65.6916 167.416 63.9675 165.117 62.407C166.756 57.4886 171.39 54.1369 176.641 54.1829Z" fill="black"/>
<path d="M189.676 113.289C188.445 113.228 187.424 114.18 187.37 115.401C186.147 142.885 165.05 165.367 138.292 168.857L145.907 162.642C146.192 162.665 146.48 162.68 146.771 162.68C147.992 162.68 148.981 161.69 148.981 160.468C148.981 159.246 147.992 158.256 146.771 158.256C143.344 158.256 140.555 155.465 140.555 152.034C140.555 148.603 143.344 145.812 146.771 145.812C147.992 145.812 148.981 144.822 148.981 143.6C148.981 142.378 147.992 141.388 146.771 141.388C143.049 141.388 139.769 143.314 137.868 146.221L133.21 150.022V143.002C136.829 142.026 139.5 138.713 139.5 134.787C139.5 130.096 135.687 126.279 131 126.279C126.313 126.279 122.5 130.095 122.5 134.787C122.5 138.713 125.172 142.025 128.791 143.002V153.629L117.276 163.027C116.661 162.008 116.024 160.993 115.366 159.991C111.145 153.564 105.839 148.993 102.13 146.29C100.865 145.369 99.2048 145.329 97.8996 146.188C96.5949 147.047 95.9735 148.589 96.3171 150.117C96.9008 152.708 97.8489 156.04 99.3565 159.629C83.916 149.189 74.57 131.818 74.57 112.844C74.57 86.106 93.5366 62.8297 119.668 57.4984C120.864 57.2545 121.636 56.0864 121.392 54.8893C121.148 53.6922 119.981 52.9189 118.786 53.1637C112.503 54.4454 106.481 56.7334 100.946 59.8873C98.6426 53.5123 92.5322 49.0578 85.5984 49C85.5495 49.0009 85.5012 49.0006 85.4525 49.0006C81.1091 49.0006 77.0172 50.6769 73.9171 53.7293C70.7828 56.8157 69.0365 60.9396 69.0006 65.3416C68.9428 72.2082 73.0754 78.2576 79.2824 80.7553C73.3544 90.3382 70.1505 101.475 70.1505 112.845C70.1505 124.26 73.3246 135.389 79.3295 145.029C83.9532 152.452 90.1045 158.767 97.3303 163.58C91.8027 162.769 86.8123 162.8 83.3671 163.007C81.6692 163.111 80.2977 164.301 79.9541 165.968C79.6106 167.634 80.3993 169.27 81.9146 170.037C85.6043 171.908 91.4468 174.437 98.3277 175.863C99.2027 176.043 100.07 176.209 100.932 176.368L97.1226 179.477C96.6857 179.311 96.2278 179.192 95.7514 179.137C94.2379 178.962 92.7464 179.385 91.5517 180.332C90.357 181.279 89.6021 182.634 89.4262 184.149C89.2503 185.664 89.6743 187.157 90.6201 188.353L98.1179 197.833C99.0636 199.029 100.418 199.785 101.932 199.961C102.156 199.987 102.38 200 102.602 200C103.881 200 105.114 199.573 106.132 198.766C107.326 197.819 108.081 196.463 108.257 194.948C108.318 194.426 108.302 193.907 108.223 193.401L132.354 173.705C132.46 173.72 132.567 173.731 132.677 173.731C132.698 173.731 132.719 173.731 132.74 173.73C148.15 173.297 162.693 167.088 173.69 156.248C184.675 145.419 191.101 130.983 191.785 115.598C191.839 114.377 190.895 113.344 189.676 113.289ZM126.919 134.788C126.919 132.536 128.75 130.703 131 130.703C133.249 130.703 135.08 132.536 135.08 134.788C135.08 137.04 133.249 138.872 131 138.872C128.75 138.872 126.919 137.04 126.919 134.788ZM73.4198 65.3784C73.4463 62.1579 74.7238 59.1408 77.0166 56.8829C79.3095 54.625 82.3403 53.3925 85.5613 53.4247C90.9566 53.4692 95.6701 57.1504 97.0758 62.2906C92.2247 65.5551 87.827 69.5194 84.0613 74.083C83.2849 75.0238 82.541 75.9876 81.8259 76.9703C76.7977 75.3892 73.375 70.723 73.4198 65.3784ZM140.979 160.956L106.051 189.465L100.491 182.435L136.211 153.281C136.587 156.492 138.396 159.27 140.979 160.956ZM111.673 162.421C112.415 163.553 113.131 164.702 113.815 165.853L109.925 169.027C109.043 167.823 108.171 166.573 107.322 165.283C103.939 160.127 102.069 154.684 101.101 151.063C104.037 153.387 108.284 157.262 111.673 162.421ZM99.221 171.531C94.2252 170.495 89.8051 168.829 86.4643 167.315C90.1398 167.257 94.8613 167.48 99.8453 168.51C101.577 168.869 103.297 169.268 104.973 169.695C105.475 170.42 105.983 171.132 106.495 171.827L105.493 172.645C103.463 172.343 101.361 171.972 99.221 171.531ZM103.866 194.437C103.827 194.778 103.657 195.084 103.388 195.297C103.119 195.511 102.782 195.607 102.442 195.566C102.101 195.527 101.795 195.357 101.582 195.087L94.0847 185.607C93.8716 185.338 93.7762 185.002 93.8157 184.66C93.8554 184.319 94.0254 184.014 94.2944 183.8C94.5237 183.618 94.8015 183.522 95.0897 183.522C95.1397 183.522 95.1901 183.525 95.2405 183.531C95.5814 183.571 95.8866 183.741 96.0996 184.01L103.597 193.49C103.811 193.759 103.906 194.096 103.866 194.437Z" fill="black"/>
<path d="M135.899 120.427C139.119 130.771 145.027 138.61 151.705 141.397C153.47 142.134 155.257 142.502 157.025 142.502C159.108 142.502 161.165 141.991 163.126 140.972C166.54 139.198 168.923 135.766 170.017 131.047C171.938 122.764 169.617 111.087 164.732 104.462C157.446 94.5796 144.459 99.2936 143.909 99.4989L143.91 99.4992C143.058 99.8242 131.019 104.744 135.899 120.427ZM141.281 106.836C143.068 104.532 145.401 103.663 145.424 103.655C145.433 103.651 145.444 103.648 145.452 103.645C145.875 103.489 155.881 99.9071 161.177 107.09C165.313 112.699 167.347 122.997 165.712 130.047C165.159 132.432 163.908 135.582 161.09 137.046C158.628 138.325 156.043 138.415 153.406 137.315C148.003 135.06 142.911 128.084 140.119 119.111C138.531 114.007 138.921 109.877 141.281 106.836Z" fill="black"/>
<path d="M118.09 99.4993C117.541 99.2937 104.554 94.58 97.267 104.462C95.6276 106.686 94.2087 109.599 93.1636 112.887C92.7936 114.051 93.4365 115.295 94.5994 115.665C95.762 116.036 97.0051 115.392 97.3751 114.228C98.2752 111.396 99.4676 108.928 100.823 107.09C106.119 99.9074 116.125 103.489 116.543 103.643C116.558 103.649 116.574 103.654 116.589 103.66C116.961 103.789 125.656 106.978 121.881 119.111C119.088 128.085 113.997 135.06 108.593 137.315C105.957 138.415 103.371 138.325 100.91 137.046C97.2982 135.17 95.3775 129.881 95.7717 122.899C95.8404 121.679 94.9084 120.635 93.6901 120.566C92.4695 120.497 91.428 121.43 91.359 122.649C90.8564 131.551 93.5953 138.23 98.8733 140.972C100.835 141.991 102.891 142.502 104.975 142.502C106.742 142.502 108.529 142.134 110.294 141.398C116.972 138.611 122.881 130.771 126.1 120.427C130.98 104.744 118.942 99.8243 118.09 99.4993Z" fill="black"/>
<path d="M143.858 121.659C145.079 121.659 146.068 120.669 146.068 119.447V119.26C146.068 118.038 145.079 117.048 143.858 117.048C142.638 117.048 141.648 118.038 141.648 119.26V119.447C141.648 120.669 142.638 121.659 143.858 121.659Z" fill="black"/>
<path d="M120.351 119.447V119.26C120.351 118.038 119.362 117.048 118.141 117.048C116.921 117.048 115.932 118.038 115.932 119.26V119.447C115.932 120.669 116.921 121.659 118.141 121.659C119.362 121.659 120.351 120.669 120.351 119.447Z" fill="black"/>
</svg>
